# xmcd CD database file
#
# Track frame offsets:
#	150
#	19105
#	45232
#	55280
#	67830
#	82590
#
# Disc length: 1661 seconds
#
# Revision: 0
# Processed by: cddbd v1.5.1PL0 Copyright (c) Steve Scherf et al.
# Submitted via: CDex 1.51
#
DISCID=37067b06
DTITLE=Akashi Masao Group - ALL SHOOK UP
DYEAR=1900
DGENRE=Blues
TTITLE0=All Shook Up
TTITLE1=Gimme Shelter
TTITLE2=Reconsider Baby
TTITLE3=I'm In Blue
TTITLE4=I'm About To Die
TTITLE5=Mistreated
EXTD=YEAR: xxxx
EXTT0=
EXTT1=
EXTT2=
EXTT3=
EXTT4=
EXTT5=
PLAYORDER=
